# Created with Anim8or 1.00
# Object "Road Barrier 01a":

mtllib Road Barrier 01a.mtl

# Begin Group:
# Shape "mesh01":
g mesh01
# No. points 56:
v -1.0135 0 0.23771
v 1.0135 0 0.23768
v -1.0135 0.18596 0.23770
v 1.0135 0.18597 0.23768
v -1.0135 0.41473 0.18352
v 1.0135 0.41474 0.18350
v -1.0135 0.89477 0.18353
v 1.0135 0.89478 0.18351
v -1.0135 0 -0.23768
v 1.0135 0 -0.23770
v -1.0135 0.18596 -0.23768
v 1.0135 0.18597 -0.23771
v -1.0135 0.41473 -0.18353
v 1.0135 0.41474 -0.18356
v -1.0135 0.89477 -0.18352
v 1.0135 0.89478 -0.18354
v -1.0135 0.18596 0.23770
v -1.0135 0.18596 -0.23768
v -1.0135 0.41473 0.18352
v -1.0135 0.41473 -0.18353
v 1.0135 0.18597 0.23768
v 1.0135 0.18597 -0.23771
v 1.0135 0.41474 0.18350
v 1.0135 0.41474 -0.18356
v -1.0135 0 0.23771
v -1.0135 0.18596 0.23770
v 1.0135 0.18597 0.23768
v 1.0135 0 0.23768
v -1.0135 0.18596 0.23770
v -1.0135 0.41473 0.18352
v 1.0135 0.41474 0.18350
v 1.0135 0.18597 0.23768
v -1.0135 0.41473 0.18352
v -1.0135 0.89477 0.18353
v 1.0135 0.89478 0.18351
v 1.0135 0.41474 0.18350
v -1.0135 0 -0.23768
v 1.0135 0 -0.23770
v 1.0135 0.18597 -0.23771
v -1.0135 0.18596 -0.23768
v -1.0135 0.18596 -0.23768
v 1.0135 0.18597 -0.23771
v 1.0135 0.41474 -0.18356
v -1.0135 0.41473 -0.18353
v -1.0135 0.41473 -0.18353
v 1.0135 0.41474 -0.18356
v 1.0135 0.89478 -0.18354
v -1.0135 0.89477 -0.18352
v -1.0135 0.89477 0.18353
v -1.0135 0.89477 -0.18352
v 1.0135 0.89478 -0.18354
v 1.0135 0.89478 0.18351
v -1.0135 0 0.23771
v 1.0135 0 0.23768
v 1.0135 0 -0.23770
v -1.0135 0 -0.23768

# No. normals 84:
vn -1 0 0
vn -1 0 0
vn -1 0 0
vn -1 0 0
vn -1 0 0
vn -1 0 0
vn 1 0 0
vn 1 0 0
vn 1 0 0
vn 1 0 0
vn 1 0 0
vn 1 0 0
vn 0.00001 0.00005 1
vn 0.00001 0 1
vn 0.00001 0.23046 0.97308
vn 0.00001 0.23046 0.97308
vn 0.00001 -0.00002 1
vn 0.00001 -0.00002 1
vn -0.00001 -0.00005 -1
vn -0.00001 0 -1
vn -0.00002 0.23034 -0.97311
vn -0.00002 0.23034 -0.97311
vn -0.00001 0.00004 -1
vn -0.00001 0.00002 -1
vn 0 1 0
vn 0 1 0
vn 0 -1 0
vn 0 -1 0
vn -1 0 0
vn 1 0 0
vn -1 0 0
vn 1 0 0
vn -1 0 0
vn 1 0 0
vn -1 0 0
vn 1 0 0
vn -1 0 0
vn 1 0 0
vn -1 0 0
vn 1 0 0
vn -1 0 0
vn 1 0 0
vn -1 0 0
vn 1 0 0
vn -1 0 0
vn -1 0 0
vn -1 0 0
vn -1 0 0
vn 1 0 0
vn 1 0 0
vn 1 0 0
vn 1 0 0
vn 0.00001 0.00003 1
vn 0.00001 0.00005 1
vn 0.00001 0.00003 1
vn 0.00001 0 1
vn 0.00001 0.23046 0.97308
vn 0.00001 0.23046 0.97308
vn 0.00001 0.23046 0.97308
vn 0.00001 0.23046 0.97308
vn 0.00001 -0.00002 1
vn 0.00001 -0.00002 1
vn 0.00001 -0.00002 1
vn 0.00001 -0.00002 1
vn -0.00001 -0.00003 -1
vn -0.00001 -0.00005 -1
vn -0.00001 -0.00003 -1
vn -0.00001 0 -1
vn -0.00002 0.23034 -0.97311
vn -0.00002 0.23034 -0.97311
vn -0.00002 0.23034 -0.97311
vn -0.00002 0.23034 -0.97311
vn -0.00001 0.00003 -1
vn -0.00001 0.00004 -1
vn -0.00001 0.00003 -1
vn -0.00001 0.00002 -1
vn 0 1 0
vn 0 1 0
vn 0 1 0
vn 0 1 0
vn 0 -1 0
vn 0 -1 0
vn 0 -1 0
vn 0 -1 0

# No. texture coordinates 56:
vt 0.55966 0.50306
vt 0.43457 0.50294
vt 0.55966 0.55196
vt 0.43457 0.55185
vt 0.54542 0.61212
vt 0.44882 0.61200
vt 0.54542 0.73836
vt 0.44881 0.73824
vt 0.43465 0.50306
vt 0.55958 0.50294
vt 0.43465 0.55196
vt 0.55958 0.55185
vt 0.44889 0.61212
vt 0.54534 0.61200
vt 0.44890 0.73836
vt 0.54534 0.73824
vt 0.55966 0.55196
vt 0.43465 0.55196
vt 0.54542 0.61212
vt 0.44889 0.61212
vt 0.43457 0.55185
vt 0.55958 0.55185
vt 0.44882 0.61200
vt 0.54534 0.61200
vt 0.50189 0.50507
vt 0.50189 0.55059
vt 0.99799 0.55059
vt 0.99799 0.50508
vt 0.50189 0.55059
vt 0.50189 0.60658
vt 0.99799 0.60658
vt 0.99799 0.55059
vt 0.50189 0.60658
vt 0.50189 0.72407
vt 0.99799 0.72407
vt 0.99799 0.60658
vt 0.49524 0.50602
vt -0.00086 0.50602
vt -0.00086 0.55153
vt 0.49524 0.55153
vt 0.49524 0.55153
vt -0.00086 0.55153
vt -0.00086 0.60752
vt 0.49524 0.60752
vt 0.49524 0.60752
vt -0.00086 0.60752
vt -0.00086 0.72501
vt 0.49524 0.72501
vt 0.24484 0.76239
vt 0.24484 0.85293
vt 0.74484 0.85294
vt 0.74484 0.76240
vt 0.25404 0.58486
vt 0.75198 0.58485
vt 0.75198 0.50365
vt 0.25404 0.50366

# No. faces 28:

usemtl tex_barrier_01_d

f 11/11/39 9/9/37 1/1/29
f 3/3/31 11/11/39 1/1/29
f 13/13/41 18/18/46 17/17/45
f 5/5/33 13/13/41 17/17/45
f 15/15/43 20/20/48 19/19/47
f 7/7/35 15/15/43 19/19/47
f 12/12/40 4/4/32 2/2/30
f 10/10/38 12/12/40 2/2/30
f 14/14/42 6/6/34 21/21/49
f 22/22/50 14/14/42 21/21/49
f 16/16/44 8/8/36 23/23/51
f 24/24/52 16/16/44 23/23/51
f 27/27/55 26/26/54 25/25/53
f 28/28/56 27/27/55 25/25/53
f 31/31/59 30/30/58 29/29/57
f 32/32/60 31/31/59 29/29/57
f 35/35/63 34/34/62 33/33/61
f 36/36/64 35/35/63 33/33/61
f 39/39/67 38/38/66 37/37/65
f 40/40/68 39/39/67 37/37/65
f 43/43/71 42/42/70 41/41/69
f 44/44/72 43/43/71 41/41/69
f 47/47/75 46/46/74 45/45/73
f 48/48/76 47/47/75 45/45/73
f 51/51/79 50/50/78 49/49/77
f 52/52/80 51/51/79 49/49/77
f 55/55/83 54/54/82 53/53/81
f 56/56/84 55/55/83 53/53/81

# End Group:

# End of Object "Road Barrier 01a"
